#N canvas 398 98 425 496 10;
#X text 156 22 attack (ms);
#X text 256 22 decay (ms);
#X text 86 22 trigger;
#X obj 82 375 outlet~;
#X obj 82 326 line~;
#X msg 82 272 1 \$1;
#X msg 148 273 0 \$1;
#X obj 82 79 t b b b;
#X obj 82 192 f \$1;
#X obj 147 194 del \$1;
#X obj 148 233 f \$2;
#X obj 82 54 inlet;
#X obj 159 54 inlet attack;
#X obj 246 54 inlet decay;
#X connect 4 0 3 0;
#X connect 5 0 4 0;
#X connect 6 0 4 0;
#X connect 7 0 8 0;
#X connect 7 1 9 0;
#X connect 8 0 5 0;
#X connect 9 0 10 0;
#X connect 10 0 6 0;
#X connect 11 0 7 0;
#X connect 12 0 8 0;
#X connect 12 0 9 1;
#X connect 13 0 10 1;
