#N canvas 0 164 608 523 10;
#X obj 97 12 inlet;
#X msg 86 236 0;
#X msg 115 234 2;
#X obj 96 88 mod 7;
#X msg 191 235 5;
#X obj 95 33 t f f;
#X obj 81 376 +;
#X obj 83 417 outlet;
#X obj 158 113 * 12;
#X obj 297 8 inlet scale;
#X obj 297 30 sel 0 1;
#X obj 152 235 f 4;
#X obj 271 237 f 9;
#X msg 366 81 3;
#X msg 399 81 8;
#X msg 295 80 4;
#X msg 225 232 7;
#X msg 307 236 11;
#X msg 326 80 9;
#X obj 91 141 sel 0 1 2 3 4 5 6;
#X obj 367 58 t b b;
#X obj 296 57 t b b;
#X obj 158 70 / 7;
#X obj 158 92 int;
#X connect 0 0 5 0;
#X connect 1 0 6 0;
#X connect 2 0 6 0;
#X connect 3 0 19 0;
#X connect 4 0 6 0;
#X connect 5 0 3 0;
#X connect 5 1 22 0;
#X connect 6 0 7 0;
#X connect 8 0 6 1;
#X connect 9 0 10 0;
#X connect 10 0 21 0;
#X connect 10 1 20 0;
#X connect 11 0 6 0;
#X connect 12 0 6 0;
#X connect 13 0 11 1;
#X connect 14 0 12 1;
#X connect 15 0 11 1;
#X connect 16 0 6 0;
#X connect 17 0 6 0;
#X connect 18 0 12 1;
#X connect 19 0 1 0;
#X connect 19 1 2 0;
#X connect 19 2 11 0;
#X connect 19 3 4 0;
#X connect 19 4 16 0;
#X connect 19 5 12 0;
#X connect 19 6 17 0;
#X connect 20 0 13 0;
#X connect 20 1 14 0;
#X connect 21 0 15 0;
#X connect 21 1 18 0;
#X connect 22 0 23 0;
#X connect 23 0 8 0;
